<svg version="1.0" xmlns="http://www.w3.org/2000/svg" width="396.000000pt" height="372.000000pt" viewBox="0 0 396.000000 372.000000" preserveAspectRatio="xMidYMid meet">

<g transform="translate(0.000000,372.000000) scale(0.100000,-0.100000)" fill="#ffffff" stroke="none">
<path d="M1937 3302 l-58 -3 3 -62 3 -62 68 -3 67 -3 0 64 c0 74 0 73 -83 69z" fill="#ffffff"/>
<path d="M1665 3230 c-104 -23 -224 -64 -300 -102 -78 -39 -225 -130 -225 -140 0 -5 25 -8 56 -8 39 0 64 6 83 19 42 30 170 90 251 117 58 20 236 64 257 64 2 0 3 16 3 35 0 41 -4 42 -125 15z" fill="#ffffff"/>
<path d="M2120 3215 c0 -37 10 -42 110 -59 98 -17 259 -80 361 -142 47 -28 67 -34 113 -34 31 0 56 3 56 8 0 22 -254 160 -365 197 -68 23 -241 65 -267 65 -4 0 -8 -16 -8 -35z" fill="#ffffff"/>
<path d="M930 2835 l0 -65 70 0 71 0 -3 63 -3 62 -67 3 -68 3 0 -66z" fill="#ffffff"/>
<path d="M2807 2894 c-4 -4 -7 -34 -7 -66 l0 -58 70 0 71 0 -3 63 -3 62 -60 3 c-34 2 -64 0 -68 -4z" fill="#ffffff"/>
<path d="M798 2617 c-75 -119 -135 -273 -169 -429 -14 -67 -8 -88 25 -88 29 0 40 18 50 75 21 119 87 291 160 410 20 33 36 63 36 68 0 4 -17 7 -37 7 -34 0 -41 -5 -65 -43z" fill="#ffffff"/>
<path d="M3006 2651 c-3 -5 15 -43 40 -85 71 -118 136 -294 159 -428 5 -35 8 -38 40 -38 41 0 42 5 20 108 -29 141 -115 349 -177 427 -19 25 -71 35 -82 16z" fill="#ffffff"/>
<path d="M2035 2368 c-2 -7 -11 -33 -19 -58 -8 -25 -47 -137 -86 -250 -39 -113 -80 -230 -90 -260 -10 -30 -35 -101 -54 -158 -20 -57 -34 -107 -32 -111 8 -13 96 -43 109 -38 7 3 25 40 39 83 32 94 157 454 188 539 33 91 70 208 70 221 0 6 -23 18 -51 27 -62 20 -68 21 -74 5z" fill="#ffffff"/>
<path d="M1397 2068 c-164 -117 -168 -121 -150 -139 10 -10 85 -72 168 -138 163 -131 152 -127 206 -60 l30 38 -96 77 c-52 43 -95 84 -95 91 0 7 30 34 67 61 36 26 78 56 91 68 l25 21 -21 35 c-48 77 -38 80 -225 -54z" fill="#ffffff"/>
<path d="M2293 2144 c-18 -24 -33 -49 -33 -54 0 -5 41 -39 90 -76 50 -36 90 -71 90 -78 0 -6 -43 -47 -95 -89 l-96 -78 38 -49 c21 -27 40 -49 43 -49 6 -1 297 232 323 258 17 17 15 19 -50 68 -97 71 -271 193 -275 192 -2 0 -18 -20 -35 -45z" fill="#ffffff"/>
<path d="M563 2004 c-2 -6 -3 -36 -1 -65 l3 -54 65 0 65 0 3 63 c2 34 -1 62 -5 62 -88 5 -126 3 -130 -6z" fill="#ffffff"/>
<path d="M3212 1948 l3 -63 65 0 65 0 3 63 3 62 -71 0 -71 0 3 -62z" fill="#ffffff"/>
<path d="M620 1743 c0 -97 97 -377 165 -480 31 -47 39 -53 70 -53 40 0 43 10 14 51 -59 83 -144 300 -170 434 -14 74 -21 85 -56 85 -20 0 -23 -5 -23 -37z" fill="#ffffff"/>
<path d="M3224 1772 c-6 -4 -17 -38 -24 -77 -25 -137 -93 -311 -166 -427 -32 -50 -30 -58 9 -58 43 0 55 14 111 127 53 104 99 243 119 355 13 67 12 78 0 82 -20 8 -36 7 -49 -2z" fill="#ffffff"/>
<path d="M943 1123 c-9 -3 -13 -27 -13 -69 l0 -64 70 0 70 0 0 58 c0 32 -5 63 -12 70 -12 12 -91 15 -115 5z" fill="#ffffff"/>
<path d="M2806 1114 c-3 -9 -6 -40 -6 -70 l0 -54 70 0 70 0 0 58 c0 32 -5 63 -12 70 -19 19 -114 16 -122 -4z" fill="#ffffff"/>
<path d="M1135 869 c10 -16 134 -93 212 -132 117 -59 339 -127 414 -127 28 0 30 2 27 32 -3 32 -4 33 -87 50 -143 29 -346 108 -433 169 -29 21 -145 28 -133 8z" fill="#ffffff"/>
<path d="M2645 871 c-6 -5 -49 -30 -96 -55 -105 -54 -236 -101 -350 -124 -83 -17 -84 -18 -87 -50 -3 -28 0 -32 22 -32 86 0 307 70 436 137 91 48 190 113 190 126 0 10 -104 9 -115 -2z" fill="#ffffff"/>
<path d="M1884 686 c-3 -7 -4 -35 -2 -62 l3 -49 65 0 65 0 3 63 3 62 -66 0 c-46 0 -67 -4 -71 -14z" fill="#ffffff"/>
</g>
</svg>